<?xml version="1.0" standalone="no"?>
<!DOCTYPE svg PUBLIC "-//W3C//DTD SVG 20010904//EN"
 "http://www.w3.org/TR/2001/REC-SVG-20010904/DTD/svg10.dtd">
<svg version="1.0" xmlns="http://www.w3.org/2000/svg"
 width="1024.000000pt" height="1024.000000pt" viewBox="0 0 1024.000000 1024.000000"
 preserveAspectRatio="xMidYMid meet">
<metadata>
Created by potrace 1.16, written by Peter Selinger 2001-2019
</metadata>
<g transform="translate(0.000000,1024.000000) scale(0.100000,-0.100000)"
fill="#000000" stroke="none">
<path d="M1168 8251 c-39 -13 -209 -173 -272 -256 -56 -74 -183 -285 -223
-370 -13 -27 -30 -61 -38 -75 -8 -14 -31 -59 -51 -100 -19 -41 -55 -113 -79
-160 -52 -102 -91 -203 -144 -370 -102 -321 -110 -373 -121 -840 -9 -354 -5
-475 20 -560 5 -19 10 -48 10 -65 0 -51 57 -197 97 -250 53 -69 126 -140 167
-159 19 -9 59 -16 89 -16 49 0 61 5 113 44 111 82 411 414 542 599 26 36 50
66 53 67 4 0 9 -57 11 -127 4 -122 6 -132 41 -209 20 -45 37 -87 37 -93 0 -6
14 -39 30 -73 58 -119 181 -216 300 -237 79 -13 212 0 268 26 91 43 361 353
421 485 14 32 29 57 32 58 3 0 13 -19 23 -42 22 -51 188 -218 243 -246 57 -29
160 -27 242 4 97 37 243 120 286 164 l38 39 79 -84 c53 -56 91 -88 116 -96 53
-18 315 -18 336 0 27 23 28 7 1 -40 -34 -63 -56 -127 -44 -134 5 -4 9 -26 9
-49 0 -38 5 -48 38 -78 44 -39 116 -63 167 -55 20 3 63 20 97 36 34 17 65 31
69 31 8 0 157 92 299 184 47 30 130 89 185 131 137 105 416 239 591 284 52 14
165 16 281 7 90 -8 94 -7 140 20 73 42 118 80 156 132 40 54 72 157 64 205 -8
53 -46 123 -71 135 -81 36 -266 40 -356 7 -25 -9 -103 -32 -174 -51 -249 -66
-477 -161 -700 -289 -43 -25 -81 -44 -83 -42 -2 2 3 62 12 134 8 71 18 227 21
346 11 363 -23 636 -113 897 -34 100 -37 105 -107 179 -122 126 -264 162 -338
84 -30 -32 -78 -151 -78 -194 0 -16 11 -92 25 -170 14 -79 23 -144 21 -146 -1
-2 -20 4 -40 12 -93 39 -305 24 -411 -28 -39 -19 -127 -87 -153 -117 -22 -27
-52 -89 -60 -126 l-7 -36 -53 66 c-28 36 -71 76 -94 90 -54 31 -192 70 -223
62 l-23 -6 14 63 c8 34 25 94 38 132 13 39 29 97 36 130 6 33 16 68 21 77 5
10 9 31 9 47 0 48 -30 163 -51 197 -44 72 -159 154 -215 154 -45 0 -131 -30
-172 -60 -65 -47 -114 -128 -163 -270 -40 -117 -55 -215 -90 -590 -11 -122
-33 -202 -120 -431 -55 -147 -75 -189 -99 -206 -10 -7 -32 -35 -49 -62 -28
-42 -68 -81 -85 -81 -3 0 -14 12 -23 27 -15 23 -19 59 -24 218 -3 104 -12 264
-19 355 -11 133 -11 178 -1 235 19 106 25 264 12 311 -26 97 -94 146 -173 126
-56 -14 -84 -38 -207 -170 -19 -20 -75 -118 -126 -217 -50 -99 -108 -207 -128
-240 -21 -33 -37 -64 -37 -69 0 -12 -138 -249 -189 -325 -40 -61 -86 -84 -145
-74 -60 9 -71 60 -71 313 0 163 6 214 46 395 64 289 204 632 315 775 106 136
147 195 166 238 12 26 28 58 38 72 9 14 25 49 35 79 18 55 16 77 -17 161 -41
107 -154 178 -240 151z m2644 -1786 c20 -13 53 -52 73 -86 69 -113 70 -257 1
-405 -42 -91 -147 -159 -212 -137 -46 15 -104 124 -111 210 -7 93 9 192 47
291 55 142 119 183 202 127z m-811 -137 c6 -13 22 -34 34 -48 52 -57 61 -184
24 -319 -26 -97 -78 -160 -133 -161 -10 0 -35 17 -56 38 -37 37 -37 37 -44
146 -5 84 -3 124 9 180 35 151 58 186 122 186 23 0 35 -6 44 -22z"/>
<path d="M8267 7925 c-117 -40 -297 -216 -369 -359 -17 -33 -40 -74 -51 -89
-43 -62 -187 -421 -187 -469 0 -8 -20 -64 -45 -124 -25 -59 -45 -123 -45 -142
0 -82 -101 -256 -221 -382 l-71 -75 7 63 c3 35 11 76 17 90 5 15 16 50 24 79
13 49 43 112 68 143 15 18 32 63 41 108 8 39 -28 153 -57 179 -11 9 -51 20
-103 26 -72 9 -92 8 -139 -6 -68 -22 -97 -55 -126 -144 -17 -54 -20 -80 -15
-130 4 -35 11 -65 16 -68 5 -4 9 -21 9 -40 0 -19 4 -44 9 -58 9 -23 7 -51 -18
-222 -16 -107 -3 -222 30 -264 29 -36 34 -38 112 -51 73 -11 130 1 222 47 74
38 206 176 371 387 l69 88 12 -133 c16 -184 40 -317 74 -425 16 -50 29 -94 29
-97 0 -8 -36 -27 -72 -38 l-29 -8 25 30 c34 40 38 59 23 105 -11 32 -22 44
-68 66 -75 38 -140 37 -227 -1 -86 -38 -160 -60 -352 -106 -85 -21 -213 -58
-285 -82 -71 -24 -159 -50 -195 -57 -112 -23 -161 -36 -198 -52 -43 -17 -77
-12 -116 19 -25 20 -26 25 -16 48 9 19 40 39 126 77 63 29 118 52 124 52 5 0
31 14 57 30 26 17 71 38 100 46 51 15 52 16 67 69 21 72 21 78 -14 115 -29 31
-33 32 -79 26 -27 -4 -75 -15 -107 -26 -78 -27 -134 -26 -192 5 -26 14 -53 25
-59 25 -20 0 -15 54 7 82 25 32 115 71 151 66 19 -3 29 0 29 8 0 7 8 15 18 18
9 3 73 21 142 41 69 20 136 44 150 54 30 22 37 56 17 79 -8 9 -18 27 -21 38
-12 38 -41 54 -122 66 -63 9 -102 8 -194 -4 -99 -13 -128 -22 -210 -61 -52
-25 -115 -50 -139 -56 -43 -9 -46 -8 -87 27 -56 50 -147 81 -259 88 -100 6
-115 3 -474 -121 l-164 -57 -50 23 c-50 24 -87 60 -87 86 0 19 54 98 98 146
42 43 72 49 72 13 0 -13 14 -38 30 -56 l31 -33 80 7 c141 12 175 23 242 80
146 124 183 209 137 318 -22 53 -22 54 -138 111 -160 78 -211 91 -307 78 -100
-14 -167 -47 -283 -140 -154 -123 -227 -218 -342 -445 -109 -215 -162 -354
-167 -441 -4 -65 -3 -73 26 -117 38 -55 58 -70 148 -103 81 -31 118 -28 208
18 75 38 184 78 349 129 72 22 146 48 165 58 54 27 183 50 280 50 79 0 91 -3
133 -29 86 -55 121 -141 100 -247 -26 -129 -88 -214 -209 -290 -131 -82 -215
-113 -339 -125 -60 -6 -129 -19 -154 -29 -25 -10 -98 -28 -162 -39 -234 -43
-354 -84 -416 -144 -96 -92 -176 -243 -186 -353 -7 -65 -5 -73 24 -129 18 -33
39 -74 47 -91 9 -17 30 -38 47 -46 17 -8 67 -36 110 -61 132 -77 274 -97 397
-55 35 12 129 57 209 100 136 73 152 85 230 170 47 50 158 165 248 255 l163
164 30 -25 c38 -33 77 -33 143 -2 28 13 76 32 106 41 30 9 77 28 104 42 74 37
197 80 252 88 27 4 61 14 76 21 15 8 63 21 105 30 80 15 310 86 513 156 63 22
146 49 183 58 38 10 87 26 109 35 62 24 55 12 -10 -18 -80 -36 -554 -199 -751
-258 -242 -72 -346 -111 -473 -178 -91 -49 -127 -75 -183 -133 -88 -91 -101
-111 -116 -184 -10 -53 -9 -66 11 -134 20 -66 29 -81 89 -140 131 -130 278
-190 631 -257 47 -9 162 -31 255 -50 563 -114 581 -117 750 -117 118 -1 176 4
270 22 196 38 235 50 338 109 163 93 202 157 214 351 l5 97 -37 70 c-20 39
-48 99 -61 134 -29 76 -131 289 -149 311 -7 8 -19 46 -27 83 l-15 68 31 23
c122 88 233 172 293 222 98 82 186 153 243 195 74 54 362 333 444 429 211 247
275 393 275 625 0 102 -20 176 -64 229 -59 72 -78 81 -175 81 -73 -1 -93 -5
-139 -29 -78 -40 -145 -107 -203 -205 -246 -409 -504 -707 -776 -898 -58 -41
-60 -42 -66 -20 -3 12 -9 76 -12 142 -5 96 -2 145 15 245 30 187 123 447 194
542 84 114 142 267 167 438 30 206 33 244 18 261 -29 36 -121 98 -165 112 -65
21 -155 26 -196 12z m-358 -2667 c7 -24 17 -48 22 -55 6 -6 11 -92 12 -192 l2
-180 -35 -35 c-24 -25 -44 -35 -65 -36 -17 0 -36 -5 -43 -12 -14 -14 -167 -13
-206 2 -15 5 -57 10 -93 10 -60 0 -101 8 -158 31 -11 4 -34 11 -52 14 -17 3
-37 12 -43 20 -6 8 -18 11 -26 8 -8 -3 -14 0 -14 6 0 6 -14 11 -31 11 -16 0
-49 11 -72 23 -23 13 -59 27 -80 31 -51 10 -87 50 -87 98 0 24 5 38 13 38 7 0
30 9 50 19 21 11 61 25 90 32 46 11 75 20 142 48 31 13 113 31 138 31 13 0 28
5 35 12 7 7 12 8 12 4 0 -5 11 -1 23 7 13 9 57 19 98 23 41 4 90 15 109 25 19
9 64 20 98 24 35 4 76 13 90 21 44 23 58 18 71 -28z"/>
<path d="M9058 5833 c12 -2 32 -2 45 0 12 2 2 4 -23 4 -25 0 -35 -2 -22 -4z"/>
<path d="M8963 5808 c-13 -6 -23 -15 -23 -20 0 -4 -7 -8 -15 -8 -18 0 -85 -42
-85 -53 0 -4 -49 -56 -110 -115 -60 -58 -110 -114 -110 -124 0 -9 -4 -19 -9
-22 -19 -12 7 -275 30 -303 6 -7 9 -13 7 -13 -3 0 20 -25 51 -56 32 -32 73
-62 96 -70 45 -15 101 -18 109 -5 3 4 23 11 45 14 22 3 55 17 74 31 19 14 39
26 45 26 7 0 12 5 12 10 0 6 9 10 19 10 11 0 27 7 36 16 8 9 22 13 30 10 8 -3
15 -1 15 4 0 5 14 16 30 25 32 16 86 91 82 113 -2 7 4 15 13 18 8 3 15 14 15
24 0 10 5 20 11 22 41 14 -10 328 -53 328 -5 0 -8 8 -8 18 0 10 -18 35 -41 57
-22 22 -48 48 -57 58 -13 14 -33 17 -102 16 -47 0 -95 -5 -107 -11z"/>
</g>
</svg>
